<svg id="visual" viewBox="0 0 1920 820" width="1920" height="820" xmlns="http://www.w3.org/2000/svg" xmlns:xlink="http://www.w3.org/1999/xlink" version="1.1"><path d="M0 313L29.2 297.8C58.3 282.7 116.7 252.3 174.8 233.2C233 214 291 206 349.2 203.3C407.3 200.7 465.7 203.3 523.8 217C582 230.7 640 255.3 698.2 269C756.3 282.7 814.7 285.3 872.8 260.7C931 236 989 184 1047.2 174.5C1105.3 165 1163.7 198 1221.8 200.8C1280 203.7 1338 176.3 1396.2 181.7C1454.3 187 1512.7 225 1570.8 264.5C1629 304 1687 345 1745.2 339.7C1803.3 334.3 1861.7 282.7 1890.8 256.8L1920 231L1920 0L1890.8 0C1861.7 0 1803.3 0 1745.2 0C1687 0 1629 0 1570.8 0C1512.7 0 1454.3 0 1396.2 0C1338 0 1280 0 1221.8 0C1163.7 0 1105.3 0 1047.2 0C989 0 931 0 872.8 0C814.7 0 756.3 0 698.2 0C640 0 582 0 523.8 0C465.7 0 407.3 0 349.2 0C291 0 233 0 174.8 0C116.7 0 58.3 0 29.2 0L0 0Z" fill="#060b32"></path><path d="M0 460L29.2 445C58.3 430 116.7 400 174.8 409.7C233 419.3 291 468.7 349.2 486.5C407.3 504.3 465.7 490.7 523.8 470.2C582 449.7 640 422.3 698.2 434.5C756.3 446.7 814.7 498.3 872.8 506.5C931 514.7 989 479.3 1047.2 449.3C1105.3 419.3 1163.7 394.7 1221.8 398.7C1280 402.7 1338 435.3 1396.2 444.8C1454.3 454.3 1512.7 440.7 1570.8 457.2C1629 473.7 1687 520.3 1745.2 517.7C1803.3 515 1861.7 463 1890.8 437L1920 411L1920 229L1890.8 254.8C1861.7 280.7 1803.3 332.3 1745.2 337.7C1687 343 1629 302 1570.8 262.5C1512.7 223 1454.3 185 1396.2 179.7C1338 174.3 1280 201.7 1221.8 198.8C1163.7 196 1105.3 163 1047.2 172.5C989 182 931 234 872.8 258.7C814.7 283.3 756.3 280.7 698.2 267C640 253.3 582 228.7 523.8 215C465.7 201.3 407.3 198.7 349.2 201.3C291 204 233 212 174.8 231.2C116.7 250.3 58.3 280.7 29.2 295.8L0 311Z" fill="#060a2c"></path><path d="M0 518L29.2 513.8C58.3 509.7 116.7 501.3 174.8 509.5C233 517.7 291 542.3 349.2 551.8C407.3 561.3 465.7 555.7 523.8 536.5C582 517.3 640 484.7 698.2 501.2C756.3 517.7 814.7 583.3 872.8 597C931 610.7 989 572.3 1047.2 549C1105.3 525.7 1163.7 517.3 1221.8 517.3C1280 517.3 1338 525.7 1396.2 535.3C1454.3 545 1512.7 556 1570.8 576.5C1629 597 1687 627 1745.2 618.8C1803.3 610.7 1861.7 564.3 1890.8 541.2L1920 518L1920 409L1890.8 435C1861.7 461 1803.3 513 1745.2 515.7C1687 518.3 1629 471.7 1570.8 455.2C1512.7 438.7 1454.3 452.3 1396.2 442.8C1338 433.3 1280 400.7 1221.8 396.7C1163.7 392.7 1105.3 417.3 1047.2 447.3C989 477.3 931 512.7 872.8 504.5C814.7 496.3 756.3 444.7 698.2 432.5C640 420.3 582 447.7 523.8 468.2C465.7 488.7 407.3 502.3 349.2 484.5C291 466.7 233 417.3 174.8 407.7C116.7 398 58.3 428 29.2 443L0 458Z" fill="#050825"></path><path d="M0 624L29.2 629.5C58.3 635 116.7 646 174.8 648.8C233 651.7 291 646.3 349.2 654.5C407.3 662.7 465.7 684.3 523.8 682.8C582 681.3 640 656.7 698.2 660.8C756.3 665 814.7 698 872.8 702.2C931 706.3 989 681.7 1047.2 666.7C1105.3 651.7 1163.7 646.3 1221.8 651.8C1280 657.3 1338 673.7 1396.2 685.8C1454.3 698 1512.7 706 1570.8 710C1629 714 1687 714 1745.2 697.7C1803.3 681.3 1861.7 648.7 1890.8 632.3L1920 616L1920 516L1890.8 539.2C1861.7 562.3 1803.3 608.7 1745.2 616.8C1687 625 1629 595 1570.8 574.5C1512.7 554 1454.3 543 1396.2 533.3C1338 523.7 1280 515.3 1221.8 515.3C1163.7 515.3 1105.3 523.7 1047.2 547C989 570.3 931 608.7 872.8 595C814.7 581.3 756.3 515.7 698.2 499.2C640 482.7 582 515.3 523.8 534.5C465.7 553.7 407.3 559.3 349.2 549.8C291 540.3 233 515.7 174.8 507.5C116.7 499.3 58.3 507.7 29.2 511.8L0 516Z" fill="#03061e"></path><path d="M0 821L29.2 821C58.3 821 116.7 821 174.8 821C233 821 291 821 349.2 821C407.3 821 465.7 821 523.8 821C582 821 640 821 698.2 821C756.3 821 814.7 821 872.8 821C931 821 989 821 1047.2 821C1105.3 821 1163.7 821 1221.8 821C1280 821 1338 821 1396.2 821C1454.3 821 1512.7 821 1570.8 821C1629 821 1687 821 1745.2 821C1803.3 821 1861.7 821 1890.8 821L1920 821L1920 614L1890.8 630.3C1861.7 646.7 1803.3 679.3 1745.2 695.7C1687 712 1629 712 1570.8 708C1512.7 704 1454.3 696 1396.2 683.8C1338 671.7 1280 655.3 1221.8 649.8C1163.7 644.3 1105.3 649.7 1047.2 664.7C989 679.7 931 704.3 872.8 700.2C814.7 696 756.3 663 698.2 658.8C640 654.7 582 679.3 523.8 680.8C465.7 682.3 407.3 660.7 349.2 652.5C291 644.3 233 649.7 174.8 646.8C116.7 644 58.3 633 29.2 627.5L0 622Z" fill="#010418"></path></svg>